HIERARCHY
ROOT Hips
{
	OFFSET 0.000000 0.000000 0.000000 
	CHANNELS 6 Xposition Yposition Zposition Yrotation Zrotation Xrotation 
	JOINT Lumbar
	{
		OFFSET 0.000000 0.000000 0.000000 
		CHANNELS 3 Zrotation Xrotation Yrotation
		JOINT Neck
		{
			OFFSET 0.000000 0.445665 0.000000 
			CHANNELS 3 Zrotation Xrotation Yrotation
			End Site
			{
				OFFSET 0.000000 0.227535 0.000000 
			}
		}
		JOINT RightShoulder
		{
			OFFSET 0.019635 0.377685 0.194865 
			CHANNELS 3 Zrotation Xrotation Yrotation
			JOINT RightElbow
			{
				OFFSET 0.000000 -0.243375 0.000000 
				CHANNELS 2 Zrotation Yrotation
				JOINT RightWrist
				{
					OFFSET 0.000000 -0.264825 0.000000 
					CHANNELS 2 Zrotation Xrotation
					End Site
					{
						OFFSET 0.006600 -0.176220 0.000990 
					}
				}
			}
		}
		JOINT LeftShoulder
		{
			OFFSET 0.019635 0.377685 -0.194865 
			CHANNELS 3 Zrotation Xrotation Yrotation
			JOINT LeftElbow
			{
				OFFSET 0.000000 -0.243375 0.000000 
				CHANNELS 2 Zrotation Yrotation
				JOINT LeftWrist
				{
					OFFSET 0.000000 -0.264825 0.000000 
					CHANNELS 2 Zrotation Xrotation
					End Site
					{
						OFFSET 0.006600 -0.176220 -0.000990 
					}
				}
			}
		}
	}
	JOINT RightHip
	{
		OFFSET 0.052140 -0.069960 0.075570 
		CHANNELS 3 Zrotation Xrotation Yrotation
		JOINT RightKnee
		{
			OFFSET 0.000000 -0.402270 0.000000 
			CHANNELS 1 Zrotation
			JOINT RightAnkle
			{
				OFFSET 0.000000 -0.404085 0.000000 
				CHANNELS 3 Zrotation Xrotation Yrotation
				End Site
				{
					OFFSET 0.204105 -0.089430 0.008415 
				}
			}
		}
	}
	JOINT LeftHip
	{
		OFFSET 0.052140 -0.069960 -0.075570 
		CHANNELS 3 Zrotation Xrotation Yrotation
		JOINT LeftKnee
		{
			OFFSET 0.000000 -0.402270 0.000000 
			CHANNELS 1 Zrotation
			JOINT LeftAnkle
			{
				OFFSET 0.000000 -0.404085 0.000000 
				CHANNELS 3 Zrotation Xrotation Yrotation
				End Site
				{
					OFFSET 0.204105 -0.089430 -0.008415 
				}
			}
		}
	}
}
MOTION
Frames: 11
Frame Time: 0.02
-0 0.95578 -0 169.9018 0 -6.86227 4.64427 8.41033 -7.55536 -43.48757 8.46064 6.51179 36.14571 -24.9732 3.32825 11.12815 83.01448 0.79392 -2.78788 37.93318 4.22757 -12.92314 10.32213 -80.47032 -2.06498 2.28963 -3.89929 8.18686 0.00605 -6.65668 -11.6869 -2.49913 -8.77168 -11.20303 8.5873 16.00718 -1.51346 -3.34356 3.41646 6.28291
0.00053 0.95584 0.00153 169.77451 0 -6.85322 4.59035 8.34762 -7.50124 -43.47049 8.35425 6.41324 36.15438 -24.89814 3.36442 11.09888 82.9419 0.78657 -2.75415 38.24457 4.325 -13.35167 10.57305 -80.47546 -2.10915 2.45177 -3.84362 8.09407 0.13634 -6.64781 -11.72388 -2.50586 -8.75108 -11.14337 8.49713 15.85996 -1.60098 -3.30102 3.47194 6.46916
0.00106 0.95589 0.00307 169.64843 0 -6.84424 4.53656 8.28504 -7.44769 -43.45312 8.24854 6.31511 36.16315 -24.82375 3.40094 11.06991 82.86981 0.77927 -2.72078 38.55412 4.42171 -13.77857 10.82291 -80.48084 -2.15318 2.61329 -3.78765 8.00145 0.26651 -6.64016 -11.76014 -2.51254 -8.73127 -11.08237 8.40733 15.7105 -1.69111 -3.2571 3.52759 6.65672
0.00158 0.95594 0.00461 169.52517 0 -6.83542 4.48295 8.2227 -7.39562 -43.43451 8.14419 6.21753 36.17208 -24.75084 3.43904 11.04171 82.79932 0.7721 -2.6886 38.85959 4.51705 -14.20247 11.07135 -80.48737 -2.19721 2.77416 -3.73242 7.90887 0.39538 -6.63217 -11.79566 -2.51887 -8.71197 -11.01727 8.31846 15.55368 -1.78911 -3.20918 3.58444 6.84947
0.00213 0.956 0.00612 169.38604 0 -6.82576 4.42861 8.15951 -7.33542 -43.42254 8.03223 6.11683 36.17977 -24.66948 3.46855 11.00925 82.72075 0.76427 -2.6502 39.18695 4.6203 -14.64144 11.32775 -80.48798 -2.24141 2.93877 -3.67638 7.81638 0.52857 -6.61965 -11.83724 -2.52681 -8.68701 -10.97609 8.22505 15.43946 -1.84129 -3.18472 3.6349 7.01252
0.00263 0.95603 0.0077 169.28123 0 -6.81787 4.37572 8.09789 -7.29266 -43.39647 7.93678 6.02297 36.19037 -24.60648 3.51634 10.98593 82.65911 0.75783 -2.62497 39.46748 4.70627 -15.04866 11.56674 -80.50098 -2.2851 3.09512 -3.61999 7.72362 0.65426 -6.62102 -11.86452 -2.53147 -8.67606 -10.8829 8.1411 15.23282 -1.99313 -3.10916 3.69882 7.23973
0.00305 0.956 0.00947 169.26619 0 -6.81466 4.32658 8.04118 -7.29664 -43.33008 7.8832 5.94518 36.20731 -24.59093 3.61687 10.98742 82.64612 0.75539 -2.63699 39.62348 4.74913 -15.37152 11.76528 -80.55101 -2.32948 3.23373 -3.57713 7.62886 0.74774 -6.62887 -11.8636 -2.52585 -8.68827 -10.65073 8.08363 14.77717 -2.41044 -2.89829 3.80326 7.64385
0.00342 0.95594 0.01131 169.28633 0 -6.81313 4.27879 7.98571 -7.31825 -43.24967 7.84685 5.87494 36.2277 -24.59451 3.7358 10.9982 82.64987 0.75436 -2.66214 39.73142 4.77373 -15.66192 11.94495 -80.6131 -2.37301 3.36315 -3.53019 7.53401 0.8364 -6.65841 -11.84614 -2.51715 -8.71779 -10.36523 8.03538 14.22726 -2.93012 -2.63485 3.92086 8.11293
0.0038 0.95588 0.01313 169.29408 0 -6.81115 4.23059 7.9295 -7.33304 -43.17641 7.80504 5.80269 36.24738 -24.59142 3.84463 11.00511 82.64468 0.75253 -2.6808 39.85852 4.80379 -15.96563 12.12874 -80.66793 -2.41567 3.49373 -3.47688 7.43986 0.93423 -6.69654 -11.82888 -2.51062 -8.7491 -10.10044 7.98286 13.71494 -3.41049 -2.39097 4.03031 8.55341
0.00423 0.95586 0.01491 169.28816 0 -6.80846 4.18191 7.87485 -7.34383 -43.09967 7.75345 5.72351 36.26266 -24.57974 3.9597 11.01072 82.64505 0.75119 -2.70182 39.99723 4.84593 -16.27607 12.33183 -80.73027 -2.46369 3.63729 -3.4624 7.34275 1.00046 -6.64949 -11.84253 -2.50075 -8.73836 -9.84941 7.93154 13.22195 -3.86241 -2.16404 4.14862 8.9913
0.00455 0.95576 0.0168 169.31716 0 -6.80687 4.13406 7.81624 -7.36586 -43.02713 7.72604 5.66171 36.2889 -24.59057 4.0675 11.02098 82.63787 0.74937 -2.72085 40.09995 4.85846 -16.56393 12.48959 -80.77983 -2.50024 3.7513 -3.36093 7.25203 1.134 -6.79417 -11.78784 -2.49719 -8.82092 -9.55848 7.87882 12.66994 -4.39536 -1.891 4.25196 9.44833
